<svg width="18" height="18" viewBox="0 0 18 18" fill="none" xmlns="http://www.w3.org/2000/svg">
<path d="M15.4688 2.76667H13.75V2.2C13.75 1.2611 12.9805 0.5 12.0312 0.5C11.082 0.5 10.3125 1.2611 10.3125 2.2V2.76667H6.875V2.2C6.875 1.2611 6.1055 0.5 5.15625 0.5C4.207 0.5 3.4375 1.2611 3.4375 2.2V2.76667H1.71875C0.769499 2.76667 0 3.52777 0 4.46667V15.8C0 16.7389 0.769499 17.5 1.71875 17.5H15.4688C16.418 17.5 17.1875 16.7389 17.1875 15.8V4.46667C17.1875 3.52777 16.418 2.76667 15.4688 2.76667ZM11.4583 2.2C11.4583 1.88702 11.7148 1.63333 12.0312 1.63333C12.3477 1.63333 12.6042 1.88702 12.6042 2.2V2.76667H11.4583V2.2ZM4.58333 2.2C4.58333 1.88702 4.83982 1.63333 5.15625 1.63333C5.47268 1.63333 5.72917 1.88702 5.72917 2.2V2.76667H4.58333V2.2ZM1.71875 3.9H3.4375V4.46667C3.4375 4.77964 3.69399 5.03333 4.01042 5.03333C4.32685 5.03333 4.58333 4.77964 4.58333 4.46667V3.9H10.3125V4.46667C10.3125 4.77964 10.569 5.03333 10.8854 5.03333C11.2018 5.03333 11.4583 4.77964 11.4583 4.46667V3.9H15.4688C15.7852 3.9 16.0417 4.15369 16.0417 4.46667V6.16667H1.14583V4.46667C1.14583 4.15369 1.40232 3.9 1.71875 3.9ZM15.4688 16.3667H1.71875C1.40232 16.3667 1.14583 16.113 1.14583 15.8V7.3H16.0417V15.8C16.0417 16.113 15.7852 16.3667 15.4688 16.3667Z" fill="currentColor"/>
<path d="M4.58335 9.56644C4.89977 9.56644 5.15627 9.31273 5.15627 8.99977C5.15627 8.68681 4.89977 8.43311 4.58335 8.43311C4.26694 8.43311 4.01044 8.68681 4.01044 8.99977C4.01044 9.31273 4.26694 9.56644 4.58335 9.56644Z" fill="currentColor"/>
<path d="M8.59373 9.56644C8.91014 9.56644 9.16665 9.31273 9.16665 8.99977C9.16665 8.68681 8.91014 8.43311 8.59373 8.43311C8.27732 8.43311 8.02081 8.68681 8.02081 8.99977C8.02081 9.31273 8.27732 9.56644 8.59373 9.56644Z" fill="currentColor"/>
<path d="M12.6042 9.56644C12.9206 9.56644 13.1771 9.31273 13.1771 8.99977C13.1771 8.68681 12.9206 8.43311 12.6042 8.43311C12.2878 8.43311 12.0312 8.68681 12.0312 8.99977C12.0312 9.31273 12.2878 9.56644 12.6042 9.56644Z" fill="currentColor"/>
<path d="M4.58335 12.3999C4.89977 12.3999 5.15627 12.1462 5.15627 11.8333C5.15627 11.5203 4.89977 11.2666 4.58335 11.2666C4.26694 11.2666 4.01044 11.5203 4.01044 11.8333C4.01044 12.1462 4.26694 12.3999 4.58335 12.3999Z" fill="currentColor"/>
<path d="M8.59373 12.3999C8.91014 12.3999 9.16665 12.1462 9.16665 11.8333C9.16665 11.5203 8.91014 11.2666 8.59373 11.2666C8.27732 11.2666 8.02081 11.5203 8.02081 11.8333C8.02081 12.1462 8.27732 12.3999 8.59373 12.3999Z" fill="currentColor"/>
<path d="M12.6042 12.3999C12.9206 12.3999 13.1771 12.1462 13.1771 11.8333C13.1771 11.5203 12.9206 11.2666 12.6042 11.2666C12.2878 11.2666 12.0312 11.5203 12.0312 11.8333C12.0312 12.1462 12.2878 12.3999 12.6042 12.3999Z" fill="currentColor"/>
<path d="M4.58335 15.2334C4.89977 15.2334 5.15627 14.9797 5.15627 14.6668C5.15627 14.3538 4.89977 14.1001 4.58335 14.1001C4.26694 14.1001 4.01044 14.3538 4.01044 14.6668C4.01044 14.9797 4.26694 15.2334 4.58335 15.2334Z" fill="currentColor"/>
<path d="M8.59373 15.2334C8.91014 15.2334 9.16665 14.9797 9.16665 14.6668C9.16665 14.3538 8.91014 14.1001 8.59373 14.1001C8.27732 14.1001 8.02081 14.3538 8.02081 14.6668C8.02081 14.9797 8.27732 15.2334 8.59373 15.2334Z" fill="currentColor"/>
<path d="M12.6042 15.2334C12.9206 15.2334 13.1771 14.9797 13.1771 14.6668C13.1771 14.3538 12.9206 14.1001 12.6042 14.1001C12.2878 14.1001 12.0312 14.3538 12.0312 14.6668C12.0312 14.9797 12.2878 15.2334 12.6042 15.2334Z" fill="currentColor"/>
</svg>
