<svg width="19" height="16" viewBox="0 0 19 16" fill="none" xmlns="http://www.w3.org/2000/svg">
<path d="M3.95801 8.83325H6.33301M1.58301 5.49992L3.16634 6.33325L4.17227 3.15664C4.3799 2.50096 4.48372 2.17312 4.67628 1.93074C4.84632 1.7167 5.06469 1.55102 5.31137 1.4489C5.59071 1.33325 5.919 1.33325 6.5756 1.33325H12.4238C13.0803 1.33325 13.4086 1.33325 13.688 1.4489C13.9347 1.55102 14.153 1.7167 14.3231 1.93074C14.5156 2.17312 14.6194 2.50096 14.8271 3.15664L15.833 6.33325L17.4163 5.49992M12.6663 8.83325H15.0413M5.38301 6.33325H13.6163C14.9465 6.33325 15.6115 6.33325 16.1196 6.60574C16.5665 6.84542 16.9298 7.22787 17.1575 7.69828C17.4163 8.23305 17.4163 8.93312 17.4163 10.3333V12.5833C17.4163 12.9705 17.4163 13.1641 17.3859 13.3251C17.261 13.9862 16.77 14.503 16.1419 14.6346C15.989 14.6666 15.805 14.6666 15.4372 14.6666H15.0413C14.1669 14.6666 13.458 13.9204 13.458 12.9999C13.458 12.7698 13.2808 12.5833 13.0622 12.5833H5.93717C5.71856 12.5833 5.54134 12.7698 5.54134 12.9999C5.54134 13.9204 4.83246 14.6666 3.95801 14.6666H3.56217C3.19432 14.6666 3.0104 14.6666 2.85745 14.6346C2.22935 14.503 1.73837 13.9862 1.61343 13.3251C1.58301 13.1641 1.58301 12.9705 1.58301 12.5833V10.3333C1.58301 8.93312 1.58301 8.23305 1.84187 7.69828C2.06957 7.22787 2.4329 6.84542 2.87978 6.60574C3.38782 6.33325 4.05288 6.33325 5.38301 6.33325Z" stroke="currentColor" stroke-width="1.5" stroke-linecap="round" stroke-linejoin="round"/>
</svg>
