<svg width="19" height="19" viewBox="0 0 19 19" fill="none" xmlns="http://www.w3.org/2000/svg">
<path d="M12.6664 8.70825L1.58309 8.70825M7.91643 3.16659L6.33309 1.58325M11.0831 17.4166L1.58309 17.4166M17.4164 12.6666C17.4164 13.541 16.7075 14.2499 15.8331 14.2499C14.9586 14.2499 14.2498 13.541 14.2498 12.6666C14.2498 11.7921 15.8331 10.2916 15.8331 10.2916C15.8331 10.2916 17.4164 11.7921 17.4164 12.6666ZM7.12476 2.37492L12.5624 7.81258C12.8759 8.1261 13.0327 8.28285 13.0914 8.46361C13.1431 8.62261 13.1431 8.79389 13.0914 8.95289C13.0327 9.13365 12.8759 9.29041 12.5624 9.60392L8.9161 13.2502C8.28907 13.8773 7.97556 14.1908 7.61404 14.3083C7.29604 14.4116 6.95349 14.4116 6.63548 14.3083C6.27396 14.1908 5.96045 13.8773 5.33342 13.2502L2.58276 10.4996C1.95574 9.87256 1.64222 9.55905 1.52476 9.19753C1.42143 8.87953 1.42143 8.53698 1.52476 8.21897C1.64222 7.85745 1.95574 7.54394 2.58276 6.91691L7.12476 2.37492Z" stroke="currentColor" stroke-width="1.5" stroke-linecap="round" stroke-linejoin="round"/>
</svg>
