<svg width="29" height="28" viewBox="0 0 29 28" fill="none" xmlns="http://www.w3.org/2000/svg">
<g clip-path="url(#clip0_157_881)">
<path d="M28.8802 6.92528C28.879 6.1351 28.2359 5.49307 27.4459 5.49307C27.4452 5.49307 27.4446 5.49307 27.444 5.49307L2.33186 5.52758C1.94878 5.52807 1.58877 5.67775 1.31823 5.949C1.04775 6.22031 0.899106 6.58075 0.899598 6.96373L0.919012 21.0747C0.919505 21.4577 1.06918 21.8178 1.34043 22.0883C1.61119 22.3583 1.97076 22.5069 2.35319 22.5069C2.35385 22.5069 2.35456 22.5069 2.3551 22.5069L27.4672 22.4724C28.2579 22.4713 28.9004 21.8272 28.8995 21.0363L28.8802 6.92528ZM25.8705 6.92944L14.9007 14.5553L3.90959 6.95962L25.8705 6.92944ZM19.5396 15.9945L26.0458 21.0402L3.73487 21.0708L10.2807 15.9945C10.5936 15.7517 10.6506 15.3013 10.4079 14.9883C10.1652 14.6754 9.71477 14.6184 9.40174 14.8611L2.35215 20.3281L2.33465 7.61467L14.4941 16.0178C14.6168 16.1026 14.7592 16.1449 14.9018 16.1449C15.0449 16.1449 15.1881 16.1021 15.3111 16.0166L27.4469 7.58033L27.4653 20.3261L20.4185 14.8611C20.1057 14.6185 19.6551 14.6754 19.4124 14.9883C19.1696 15.3013 19.2265 15.7518 19.5396 15.9945Z" fill="white"/>
</g>
<defs>
<clipPath id="clip0_157_881">
<rect width="28" height="28" fill="white" transform="translate(0.899597)"/>
</clipPath>
</defs>
</svg>
