<svg width="29" height="20" viewBox="0 0 29 20" fill="none" xmlns="http://www.w3.org/2000/svg">
<path d="M26.8498 0.57959H2.87558C1.9367 0.57959 1.17285 1.21733 1.17285 2.00126V3.6744C1.17285 4.45832 1.9367 5.09611 2.87558 5.09611H3.67275L12.4726 12.4436V18.8758C12.4726 19.0675 12.6109 19.2403 12.823 19.3136C12.8932 19.3379 12.9669 19.3497 13.04 19.3497C13.1878 19.3497 13.333 19.3016 13.4415 19.2109L17.1078 16.1497C17.2142 16.0608 17.274 15.9403 17.274 15.8146V12.4436L26.0737 5.09611H26.8499C27.7888 5.09611 28.5526 4.45832 28.5526 3.6744V2.00126C28.5525 1.21733 27.7887 0.57959 26.8498 0.57959ZM16.3048 11.9123C16.1928 12.0059 16.1376 12.1289 16.1389 12.2516V15.6184L13.6077 17.7318V12.2488C13.6081 12.127 13.5528 12.0052 13.4416 11.9123L5.27809 5.09611H24.4683L16.3048 11.9123ZM27.4174 3.6744C27.4174 3.93569 27.1628 4.14832 26.8498 4.14832H2.87558C2.56264 4.14832 2.30799 3.93574 2.30799 3.6744V2.00126C2.30799 1.73996 2.56259 1.52734 2.87558 1.52734H26.8499C27.1628 1.52734 27.4175 1.73992 27.4175 2.00126L27.4174 3.6744Z" fill="currentColor" stroke="currentColor" stroke-width="0.75"/>
</svg>
