<svg width="19" height="10" viewBox="0 0 19 10" fill="none" xmlns="http://www.w3.org/2000/svg">
<path d="M9.5 4.99992H9.50438M13.875 4.99992H13.8794M5.125 4.99992H5.12938M3.55 0.833252H15.45C16.4301 0.833252 16.9201 0.833252 17.2945 1.01491C17.6238 1.1747 17.8915 1.42966 18.0593 1.74327C18.25 2.09979 18.25 2.5665 18.25 3.49992V6.49992C18.25 7.43334 18.25 7.90005 18.0593 8.25657C17.8915 8.57017 17.6238 8.82514 17.2945 8.98493C16.9201 9.16659 16.4301 9.16659 15.45 9.16659H3.55C2.56991 9.16659 2.07986 9.16659 1.70552 8.98493C1.37623 8.82514 1.10852 8.57017 0.940739 8.25657C0.75 7.90005 0.75 7.43334 0.75 6.49992V3.49992C0.75 2.5665 0.75 2.09979 0.940739 1.74327C1.10852 1.42966 1.37623 1.1747 1.70552 1.01491C2.07986 0.833252 2.56991 0.833252 3.55 0.833252ZM9.71875 4.99992C9.71875 5.11498 9.62081 5.20825 9.5 5.20825C9.37919 5.20825 9.28125 5.11498 9.28125 4.99992C9.28125 4.88486 9.37919 4.79159 9.5 4.79159C9.62081 4.79159 9.71875 4.88486 9.71875 4.99992ZM14.0938 4.99992C14.0938 5.11498 13.9958 5.20825 13.875 5.20825C13.7542 5.20825 13.6562 5.11498 13.6562 4.99992C13.6562 4.88486 13.7542 4.79159 13.875 4.79159C13.9958 4.79159 14.0938 4.88486 14.0938 4.99992ZM5.34375 4.99992C5.34375 5.11498 5.24581 5.20825 5.125 5.20825C5.00419 5.20825 4.90625 5.11498 4.90625 4.99992C4.90625 4.88486 5.00419 4.79159 5.125 4.79159C5.24581 4.79159 5.34375 4.88486 5.34375 4.99992Z" stroke="currentColor" stroke-width="1.5" stroke-linecap="round" stroke-linejoin="round"/>
</svg>
