<svg width="41" height="42" viewBox="0 0 41 42" fill="none" xmlns="http://www.w3.org/2000/svg">
<path d="M26.9354 0.932877C19.4557 0.932877 13.3705 7.01807 13.3705 14.4977C13.3705 16.1605 13.666 17.7764 14.2493 19.3109L1.27906 32.2821C1.09368 32.4676 0.989502 32.719 0.989502 32.9811V40.0786C0.989502 40.6245 1.43208 41.0671 1.97804 41.0671H7.82698C8.08887 41.0671 8.34003 40.9633 8.52541 40.7782L10.4965 38.8101C10.6822 38.6247 10.7866 38.373 10.7866 38.1105V35.6902H13.2038C13.7498 35.6902 14.1923 35.2477 14.1923 34.7017V33.7328H15.1613C15.7072 33.7328 16.1498 33.2902 16.1498 32.7443V30.6172H18.2769C18.5391 30.6172 18.7905 30.513 18.9759 30.3276L22.1209 27.1826C23.6556 27.7665 25.2717 28.0624 26.9352 28.0624C34.4148 28.0624 40.5 21.9772 40.5 14.4975C40.5001 7.01807 34.415 0.932877 26.9354 0.932877ZM26.9354 26.0853C25.3173 26.0853 23.7524 25.7585 22.2839 25.1138C21.9042 24.9472 21.4766 25.0389 21.1966 25.3118C21.1936 25.3147 21.1906 25.317 21.1876 25.3201L17.8676 28.6401H15.1614C14.6155 28.6401 14.1729 29.0827 14.1729 29.6286V31.7557H13.204C12.6581 31.7557 12.2154 32.1983 12.2154 32.7443V33.7131H9.79811C9.25222 33.7131 8.80957 34.1557 8.80957 34.7017V37.7005L7.41796 39.09H2.96674V37.693L15.0494 25.6104C15.3969 25.2629 15.3969 24.6996 15.0494 24.3522C14.7019 24.0048 14.1388 24.0047 13.7911 24.3522L2.96674 35.1766V33.3907L16.112 20.2445C16.1149 20.2415 16.1172 20.2388 16.12 20.2359C16.3929 19.9561 16.4849 19.5285 16.3183 19.1485C15.6742 17.6801 15.3478 16.1153 15.3478 14.4978C15.3478 8.10828 20.5461 2.91004 26.9356 2.91004C33.3251 2.91004 38.5232 8.10821 38.5232 14.4978C38.523 20.8871 33.3247 26.0853 26.9354 26.0853Z" fill="#0A8C8C"/>
<path d="M31.0635 6.66643C29.0218 6.66643 27.3607 8.32745 27.3607 10.3692C27.3607 12.411 29.0218 14.072 31.0635 14.072C33.1053 14.072 34.7663 12.411 34.7663 10.3692C34.7663 8.32745 33.1054 6.66643 31.0635 6.66643ZM31.0635 12.0949C30.112 12.0949 29.3378 11.3207 29.3378 10.3692C29.3378 9.41766 30.112 8.64351 31.0635 8.64351C32.0151 8.64351 32.7892 9.41766 32.7892 10.3692C32.7892 11.3207 32.0151 12.0949 31.0635 12.0949Z" fill="#0A8C8C"/>
</svg>
