<svg width="30" height="28" viewBox="0 0 29 28" fill="none" xmlns="http://www.w3.org/2000/svg">
<g clip-path="url(#clip0_20_2535)">
<path d="M14.6014 15.1971C13.0872 15.1971 11.8552 16.429 11.8552 17.9433C11.8552 18.6943 12.1673 19.4204 12.7123 19.9372V22.4166C12.7123 23.4582 13.5597 24.3057 14.6014 24.3057C15.643 24.3057 16.4905 23.4582 16.4905 22.4166V19.9372C17.0352 19.4207 17.3475 18.6944 17.3475 17.9433C17.3475 16.429 16.1156 15.1971 14.6014 15.1971ZM15.5731 18.9742C15.311 19.2213 15.1606 19.5666 15.1606 19.9217V22.4166C15.1606 22.7249 14.9098 22.9757 14.6015 22.9757C14.2931 22.9757 14.0424 22.7249 14.0424 22.4166V19.9217C14.0424 19.5666 13.892 19.2212 13.63 18.9744C13.3433 18.704 13.1854 18.3378 13.1854 17.9433C13.1854 17.1625 13.8207 16.5271 14.6015 16.5271C15.3824 16.5271 16.0177 17.1625 16.0177 17.9433C16.0175 18.3378 15.8596 18.704 15.5731 18.9742Z" fill="currentColor"/>
<path d="M22.6532 11.5869H9.87428V6.30085C9.87428 3.69431 11.9948 1.57365 14.6014 1.57365C17.208 1.57365 19.3285 3.69431 19.3285 6.30085V8.69342C19.3285 9.06068 19.6263 9.35842 19.9935 9.35842C20.3607 9.35842 20.6585 9.06073 20.6585 8.69342V6.30085C20.6585 2.96089 17.9413 0.243652 14.6014 0.243652C11.2615 0.243652 8.54423 2.96089 8.54423 6.30085V11.5869H6.54945C5.44942 11.5869 4.5545 12.4819 4.5545 13.5819V25.9209C4.5545 27.021 5.44942 27.9159 6.54945 27.9159H22.6532C23.7533 27.9159 24.6482 27.021 24.6482 25.9209V13.5819C24.6482 12.4819 23.7533 11.5869 22.6532 11.5869ZM23.3182 25.921C23.3182 26.2876 23.02 26.586 22.6532 26.586H6.5495C6.18284 26.586 5.8845 26.2877 5.8845 25.921V13.5819C5.8845 13.2152 6.18284 12.9169 6.5495 12.9169H22.6533C23.02 12.9169 23.3183 13.2152 23.3183 13.5819L23.3182 25.921Z" fill="currentColor"/>
</g>
<defs>
<clipPath id="clip0_20_2535">
<rect width="27.6723" height="27.6723" fill="currentColor" transform="translate(0.765259 0.243652)"/>
</clipPath>
</defs>
</svg>
