<svg width="16" height="15" viewBox="0 0 16 15" fill="none" xmlns="http://www.w3.org/2000/svg">
<path d="M9.46265 1.36002C9.20484 1.59407 9.18241 1.99622 9.41279 2.25833L13.7247 7.16291L1.59045 7.16291C1.24474 7.16291 0.964355 7.44772 0.964355 7.79911C0.964355 8.1504 1.24464 8.4353 1.59045 8.4353L13.7247 8.4353L9.41284 13.3399C9.18246 13.6019 9.20494 14.004 9.4627 14.2382C9.7206 14.4722 10.1164 14.4496 10.3468 14.1876L15.0315 8.85873C15.2971 8.55674 15.4298 8.17802 15.4298 7.79915C15.4298 7.42043 15.2971 7.04166 15.0317 6.73958L10.3468 1.41073C10.1163 1.14862 9.72046 1.12597 9.46265 1.36002Z" fill="currentColor" stroke="currentColor" stroke-width="0.5"/>
</svg>
