<svg width="19" height="18" viewBox="0 0 19 18" fill="none" xmlns="http://www.w3.org/2000/svg">
<path d="M9.50016 11.25C10.8118 11.25 11.8752 10.2426 11.8752 9C11.8752 7.75736 10.8118 6.75 9.50016 6.75C8.18849 6.75 7.12516 7.75736 7.12516 9C7.12516 10.2426 8.18849 11.25 9.50016 11.25Z" stroke="currentColor" stroke-width="1.5" stroke-linecap="round" stroke-linejoin="round"/>
<path d="M14.8259 11.0455C14.7301 11.2511 14.7015 11.4792 14.7439 11.7004C14.7862 11.9216 14.8975 12.1257 15.0634 12.2864L15.1066 12.3273C15.2404 12.4539 15.3466 12.6043 15.419 12.7699C15.4915 12.9354 15.5288 13.1128 15.5288 13.292C15.5288 13.4712 15.4915 13.6487 15.419 13.8142C15.3466 13.9798 15.2404 14.1302 15.1066 14.2568C14.9729 14.3836 14.8142 14.4842 14.6394 14.5528C14.4647 14.6214 14.2774 14.6568 14.0882 14.6568C13.8991 14.6568 13.7118 14.6214 13.537 14.5528C13.3623 14.4842 13.2035 14.3836 13.0699 14.2568L13.0267 14.2159C12.8571 14.0587 12.6416 13.9533 12.4082 13.9132C12.1747 13.8731 11.9339 13.9001 11.7168 13.9909C11.504 14.0773 11.3224 14.2208 11.1946 14.4038C11.0667 14.5867 10.9981 14.8011 10.9971 15.0205V15.1364C10.9971 15.498 10.8455 15.8449 10.5755 16.1006C10.3056 16.3563 9.93949 16.5 9.55774 16.5C9.17599 16.5 8.80987 16.3563 8.53993 16.1006C8.26999 15.8449 8.11834 15.498 8.11834 15.1364V15.075C8.11277 14.8493 8.03566 14.6305 7.89705 14.4468C7.75843 14.2632 7.56471 14.1234 7.34107 14.0455C7.124 13.9547 6.88321 13.9276 6.64974 13.9677C6.41627 14.0078 6.20084 14.1133 6.03122 14.2705L5.98804 14.3114C5.85436 14.4382 5.69561 14.5387 5.52087 14.6074C5.34613 14.676 5.15883 14.7113 4.96967 14.7113C4.78051 14.7113 4.59321 14.676 4.41847 14.6074C4.24373 14.5387 4.08498 14.4382 3.9513 14.3114C3.81747 14.1847 3.7113 14.0343 3.63886 13.8688C3.56643 13.7032 3.52914 13.5258 3.52914 13.3466C3.52914 13.1674 3.56643 12.9899 3.63886 12.8244C3.7113 12.6589 3.81747 12.5085 3.9513 12.3818L3.99448 12.3409C4.1604 12.1802 4.2717 11.9761 4.31403 11.7549C4.35636 11.5338 4.32778 11.3056 4.23198 11.1C4.14075 10.8983 3.98927 10.7264 3.79618 10.6052C3.60309 10.4841 3.37683 10.4191 3.14524 10.4182H3.02289C2.64114 10.4182 2.27502 10.2745 2.00508 10.0188C1.73515 9.76305 1.5835 9.4162 1.5835 9.05455C1.5835 8.69289 1.73515 8.34604 2.00508 8.09031C2.27502 7.83458 2.64114 7.69091 3.02289 7.69091H3.08766C3.32588 7.68563 3.55691 7.61258 3.75072 7.48126C3.94453 7.34993 4.09215 7.16641 4.17441 6.95455C4.27021 6.7489 4.29879 6.52078 4.25645 6.2996C4.21412 6.07842 4.10282 5.87433 3.93691 5.71364L3.89372 5.67273C3.75989 5.54608 3.65373 5.39569 3.58129 5.23015C3.50885 5.0646 3.47157 4.88716 3.47157 4.70795C3.47157 4.52875 3.50885 4.35131 3.58129 4.18576C3.65373 4.02022 3.75989 3.86983 3.89372 3.74318C4.0274 3.6164 4.18615 3.51582 4.36089 3.44719C4.53563 3.37857 4.72294 3.34325 4.91209 3.34325C5.10125 3.34325 5.28856 3.37857 5.4633 3.44719C5.63804 3.51582 5.79678 3.6164 5.93047 3.74318L5.97365 3.78409C6.14326 3.94128 6.3587 4.04672 6.59216 4.08682C6.82563 4.12693 7.06642 4.09985 7.2835 4.00909H7.34107C7.55394 3.92266 7.73548 3.77915 7.86335 3.59623C7.99122 3.4133 8.05984 3.19895 8.06077 2.97955V2.86364C8.06077 2.50198 8.21242 2.15513 8.48236 1.8994C8.7523 1.64367 9.11841 1.5 9.50016 1.5C9.88191 1.5 10.248 1.64367 10.518 1.8994C10.7879 2.15513 10.9396 2.50198 10.9396 2.86364V2.925C10.9405 3.1444 11.0091 3.35876 11.137 3.54168C11.2648 3.72461 11.4464 3.86812 11.6593 3.95455C11.8763 4.04531 12.1171 4.07238 12.3506 4.03228C12.5841 3.99217 12.7995 3.88673 12.9691 3.72955L13.0123 3.68864C13.146 3.56185 13.3047 3.46127 13.4795 3.39265C13.6542 3.32402 13.8415 3.2887 14.0307 3.2887C14.2198 3.2887 14.4071 3.32402 14.5819 3.39265C14.7566 3.46127 14.9153 3.56185 15.049 3.68864C15.1829 3.81528 15.289 3.96568 15.3615 4.13122C15.4339 4.29676 15.4712 4.47421 15.4712 4.65341C15.4712 4.83261 15.4339 5.01006 15.3615 5.1756C15.289 5.34114 15.1829 5.49154 15.049 5.61818L15.0058 5.65909C14.8399 5.81978 14.7286 6.02387 14.6863 6.24505C14.644 6.46623 14.6725 6.69435 14.7683 6.9V6.95455C14.8596 7.15621 15.0111 7.32819 15.2041 7.44934C15.3972 7.57048 15.6235 7.63549 15.8551 7.63636H15.9774C16.3592 7.63636 16.7253 7.78003 16.9952 8.03576C17.2652 8.2915 17.4168 8.63834 17.4168 9C17.4168 9.36166 17.2652 9.7085 16.9952 9.96424C16.7253 10.22 16.3592 10.3636 15.9774 10.3636H15.9127C15.6811 10.3645 15.4548 10.4295 15.2617 10.5507C15.0686 10.6718 14.9171 10.8438 14.8259 11.0455Z" stroke="currentColor" stroke-width="1.5" stroke-linecap="round" stroke-linejoin="round"/>
</svg>
