<svg width="17" height="18" viewBox="0 0 17 18" fill="none" xmlns="http://www.w3.org/2000/svg">
<path d="M15.625 7.24398H1.375M11.6667 0.910645V4.07731M5.33333 0.910645V4.07731M5.175 16.744H11.825C13.1551 16.744 13.8202 16.744 14.3282 16.4851C14.7751 16.2574 15.1384 15.8941 15.3661 15.4472C15.625 14.9392 15.625 14.2741 15.625 12.944V6.29398C15.625 4.96385 15.625 4.29879 15.3661 3.79075C15.1384 3.34387 14.7751 2.98054 14.3282 2.75284C13.8202 2.49398 13.1551 2.49398 11.825 2.49398H5.175C3.84488 2.49398 3.17981 2.49398 2.67177 2.75284C2.22489 2.98054 1.86156 3.34387 1.63386 3.79075C1.375 4.29879 1.375 4.96385 1.375 6.29398V12.944C1.375 14.2741 1.375 14.9392 1.63386 15.4472C1.86156 15.8941 2.22489 16.2574 2.67177 16.4851C3.17981 16.744 3.84488 16.744 5.175 16.744Z" stroke="currentColor" stroke-width="1.5" stroke-linecap="round" stroke-linejoin="round"/>
</svg>
