<svg width="17" height="17" viewBox="0 0 17 17" fill="none" xmlns="http://www.w3.org/2000/svg">
<path d="M3.5415 8.50008C3.5415 5.76167 5.76143 3.54175 8.49984 3.54175M11.6873 5.31258L8.49977 8.50008M15.5832 8.50008C15.5832 12.4121 12.4119 15.5834 8.49984 15.5834C4.58782 15.5834 1.4165 12.4121 1.4165 8.50008C1.4165 4.58806 4.58782 1.41675 8.49984 1.41675C12.4119 1.41675 15.5832 4.58806 15.5832 8.50008ZM9.20817 8.50008C9.20817 8.89128 8.89104 9.20841 8.49984 9.20841C8.10864 9.20841 7.7915 8.89128 7.7915 8.50008C7.7915 8.10888 8.10864 7.79175 8.49984 7.79175C8.89104 7.79175 9.20817 8.10888 9.20817 8.50008Z" stroke="currentColor" stroke-width="1.5" stroke-linecap="round" stroke-linejoin="round"/>
</svg>
