<svg width="24" height="25" viewBox="0 0 24 25" fill="none" xmlns="http://www.w3.org/2000/svg">
<g clip-path="url(#clip0_157_883)">
<path d="M23.0886 19.7192L18.386 15.0166C17.8246 14.4553 16.9114 14.4553 16.35 15.0166L15.1271 16.2395C14.7439 16.6226 14.6228 17.1697 14.7627 17.657L14.3013 18.1184C14.3012 18.1186 14.3011 18.1186 14.301 18.1188C13.9733 18.4468 11.9327 17.9434 9.46603 15.4768C6.99975 13.0105 6.49622 10.9703 6.82387 10.642C6.82387 10.6419 6.82397 10.6419 6.82397 10.6419L7.28578 10.1801C7.41614 10.2176 7.55067 10.2367 7.6853 10.2367C8.05397 10.2367 8.42259 10.0964 8.70333 9.81577L9.9262 8.5929C10.4875 8.03157 10.4875 7.1183 9.9262 6.55693L5.22356 1.85424C4.95169 1.58237 4.59014 1.43265 4.20562 1.43265C3.82102 1.43265 3.45961 1.58246 3.18769 1.85424L1.96472 3.07721C1.58156 3.46037 1.46044 4.00749 1.60036 4.49476C1.60036 4.49476 1.20923 4.88963 1.18978 4.91457C-0.111141 6.36062 -0.355219 8.63729 0.507234 11.3593C1.35178 14.0244 3.17241 16.8478 5.63381 19.309C8.09512 21.7703 10.9185 23.591 13.5836 24.4356C14.6542 24.7748 15.6558 24.9429 16.5653 24.9429C18.0566 24.9429 19.2999 24.4907 20.1911 23.5995L20.4477 23.3429C20.5762 23.3798 20.7103 23.3998 20.8477 23.3998C21.2323 23.3998 21.5938 23.25 21.8656 22.9782L23.0886 21.7552C23.6499 21.1939 23.6499 20.2806 23.0886 19.7192ZM4.20562 2.87218L8.90831 7.57491L7.68609 8.79844C7.68609 8.79844 7.68586 8.79821 7.68544 8.79779L7.66786 8.78021L5.33409 6.44644L2.9827 4.09515L4.20562 2.87218ZM19.1732 22.5815C19.1731 22.5816 19.1731 22.5817 19.173 22.5818C18.1373 23.6173 16.3068 23.7883 14.0186 23.0632C11.5693 22.287 8.95303 20.5922 6.65189 18.291C4.35066 15.9898 2.65584 13.3737 1.87973 10.9243C1.15458 8.63602 1.32562 6.80541 2.36137 5.76962L2.36147 5.76952L2.49131 5.63968L6.14086 9.28918L5.80612 9.62391C5.80589 9.62415 5.8057 9.62443 5.80542 9.62471C4.41862 11.0132 6.08494 14.1316 8.44814 16.4948C10.2169 18.2636 12.4087 19.642 13.9818 19.642C14.5107 19.642 14.9697 19.4861 15.319 19.1368C15.3192 19.1366 15.3193 19.1365 15.3194 19.1364L15.6538 18.802L19.3033 22.4515L19.1732 22.5815ZM20.8477 21.9602L16.1451 17.2575L17.3679 16.0346L22.0706 20.7372C22.0706 20.7372 20.8482 21.9606 20.8477 21.9602Z" fill="white"/>
<path d="M18.2258 6.7172C16.8567 5.34802 15.0364 4.59404 13.1003 4.59409C12.7028 4.59409 12.3805 4.91635 12.3805 5.3139C12.3805 5.71145 12.7028 6.03371 13.1003 6.03371C14.6519 6.03362 16.1106 6.63793 17.2079 7.73513C18.3051 8.83229 18.9092 10.291 18.9092 11.8425C18.9092 12.2401 19.2315 12.5624 19.629 12.5624C20.0265 12.5624 20.3488 12.2401 20.3488 11.8427C20.3489 9.90657 19.5948 8.08637 18.2258 6.7172Z" fill="white"/>
<path d="M20.8076 4.13545C18.7487 2.07665 16.0115 0.942838 13.1001 0.942932C12.7025 0.942932 12.3802 1.26524 12.3802 1.66274C12.3802 2.06029 12.7026 2.38256 13.1001 2.38256C15.627 2.38246 18.0026 3.36656 19.7895 5.15339C21.5763 6.94017 22.5604 9.31584 22.5603 11.8427C22.5603 12.2403 22.8826 12.5625 23.2801 12.5625C23.6776 12.5625 24 12.2403 24 11.8428C24 8.93132 22.8662 6.1942 20.8076 4.13545Z" fill="white"/>
<path d="M15.6439 9.29888C14.9546 8.60953 14.0753 8.24527 13.1007 8.24527H13.1004C12.7028 8.24536 12.3806 8.56758 12.3807 8.96518C12.3808 9.36272 12.7031 9.68499 13.1006 9.68489C13.1007 9.68489 13.1007 9.68489 13.1008 9.68489C13.6935 9.68489 14.2067 9.89752 14.6261 10.3168C15.0395 10.7303 15.258 11.2578 15.2579 11.8423C15.2578 12.2399 15.5802 12.5621 15.9776 12.5622H15.9777C16.3753 12.5622 16.6974 12.24 16.6975 11.8425C16.6976 10.8679 16.3333 9.98832 15.6439 9.29888Z" fill="white"/>
</g>
<defs>
<clipPath id="clip0_157_883">
<rect width="24" height="24" fill="white" transform="translate(0 0.942932)"/>
</clipPath>
</defs>
</svg>
