<svg width="30" height="28" viewBox="0 0 21 28" fill="none" xmlns="http://www.w3.org/2000/svg">
<path d="M16.9098 18.2965C16.8885 18.2941 13.8027 18.3881 13.3439 14.9746C13.8537 14.6074 14.3235 14.1307 14.7375 13.5523C15.5427 12.427 16.0616 11.0154 16.2464 9.48851C16.31 9.42922 16.3625 9.35544 16.3979 9.26848C16.7323 8.44615 16.9019 7.5681 16.9019 6.65859C16.9019 3.16778 14.351 0.327759 11.2152 0.327759C10.3951 0.327759 9.59951 0.522761 8.84806 0.907848C8.5614 0.93044 8.28049 0.982488 8.01111 1.0628C6.72325 1.44692 5.67525 2.43258 5.06009 3.83835C4.46289 5.20326 4.34519 6.81003 4.72877 8.36275C4.80982 8.69077 4.91286 9.01311 5.03506 9.32107C5.06815 9.40435 5.11748 9.47543 5.17669 9.53391C5.47608 11.9171 6.57461 13.8917 8.07247 14.9698C7.61225 18.3891 4.5275 18.2942 4.50625 18.2966C2.28719 18.3743 0.504761 20.2607 0.504761 22.57V27.377C0.504761 27.7211 0.774982 28 1.10835 28H6.40863H15.0073H20.3077C20.641 28 20.9113 27.7211 20.9113 27.377V22.57C20.9113 20.2606 19.129 18.3742 16.9098 18.2965ZM8.34626 2.26C8.56653 2.19428 8.79916 2.15531 9.0377 2.14423C9.12624 2.14013 9.21279 2.11597 9.29127 2.07338C9.90235 1.74196 10.5497 1.57393 11.2153 1.57393C13.6852 1.57393 15.6947 3.85489 15.6947 6.65859C15.6947 6.74274 15.6924 6.82646 15.6889 6.90985C15.2098 6.40765 14.5442 6.09552 13.8091 6.09552H9.69527C9.45049 6.09552 9.21818 6.01618 9.02335 5.86604C8.85701 5.73789 8.72842 5.56564 8.65161 5.36794C8.53265 5.06214 8.23934 4.87087 7.92006 4.89157C7.59963 4.91265 7.32998 5.14235 7.24903 5.46333C7.01065 6.40894 6.53529 7.27997 5.88311 7.98632C5.27628 5.40831 6.37146 2.84896 8.34626 2.26ZM7.8211 13.0364C7.03568 12.046 6.52131 10.7085 6.35826 9.24416C7.11992 8.54343 7.72204 7.67144 8.11405 6.7042C8.17353 6.76085 8.23599 6.81441 8.30123 6.86473C8.70627 7.17674 9.18828 7.34175 9.69532 7.34175H13.8092C14.3912 7.34175 14.8929 7.70213 15.1168 8.21791C15.1168 8.22234 15.1161 8.22655 15.1161 8.23099C15.1161 11.7483 13.1391 14.6098 10.7089 14.6098C9.65129 14.6099 8.62564 14.0511 7.8211 13.0364ZM9.20802 15.5817C9.68652 15.7604 10.1898 15.856 10.7089 15.856C11.2239 15.856 11.727 15.7635 12.2086 15.585C12.4296 16.7735 13.0698 17.8095 13.964 18.5226L10.7945 23.1819C10.7739 23.2124 10.7451 23.2278 10.7091 23.2278C10.6731 23.2278 10.6444 23.2123 10.6237 23.182L7.45344 18.5216C8.34772 17.8076 8.9877 16.7709 9.20802 15.5817ZM19.704 26.7538H15.0073H6.40863H1.71193V22.5698C1.71193 20.8986 3.02911 19.5389 4.64814 19.5389C4.67013 19.5389 5.64143 19.5145 6.40889 19.1545L9.63568 23.8981C9.88093 24.2587 10.2822 24.4739 10.709 24.4739H10.7091C11.1359 24.4739 11.5372 24.2587 11.7824 23.8981L15.0086 19.1553C15.8839 19.539 16.7459 19.539 16.7679 19.539C18.3869 19.539 19.704 20.8986 19.704 22.5699V26.7538Z" fill="#0B99A4"/>
</svg>
